HIERARCHY
ROOT simHips
{
  OFFSET -150.754 99.7844 60.9346
  CHANNELS 6 Xposition Yposition Zposition Zrotation Xrotation Yrotation
  JOINT simSpine
  {
    OFFSET -0.000355721 21.3001 -0.016921
    CHANNELS 3 Zrotation Xrotation Yrotation
    JOINT simLeftArm
    {
      OFFSET 13.5181 21.3012 0
      CHANNELS 3 Zrotation Xrotation Yrotation
      JOINT simLeftForeArm
      {
        OFFSET 24.5783 0 0
        CHANNELS 3 Zrotation Xrotation Yrotation
        JOINT simLeftHand
        {
          OFFSET 24.5783 0 0
          CHANNELS 3 Zrotation Xrotation Yrotation
          End Site
          {
            OFFSET 7.32568 1.52588e-05 0.0169305
          }
        }
      }
    }
    JOINT simHead
    {
      OFFSET 0 27.4458 -0.00489235
      CHANNELS 3 Zrotation Xrotation Yrotation
      End Site
      {
        OFFSET 0 0 0
      }
    }
    JOINT simRightArm
    {
      OFFSET -13.5174 21.3012 0
      CHANNELS 3 Zrotation Xrotation Yrotation
      JOINT simRightForeArm
      {
        OFFSET -24.5783 0 0
        CHANNELS 3 Zrotation Xrotation Yrotation
        JOINT simRightHand
        {
          OFFSET -24.5783 0 0
          CHANNELS 3 Zrotation Xrotation Yrotation
          End Site
          {
            OFFSET -7.32568 1.52588e-05 0.0169305
          }
        }
      }
    }
  }
  JOINT simRightUpLeg
  {
    OFFSET -8.44614 -9.41038 0.835684
    CHANNELS 3 Zrotation Xrotation Yrotation
    JOINT simRightLeg
    {
      OFFSET 0 -40.9639 0
      CHANNELS 3 Zrotation Xrotation Yrotation
      JOINT simRightFoot
      {
        OFFSET 0 -40.9639 0
        CHANNELS 3 Zrotation Xrotation Yrotation
        End Site
        {
          OFFSET 0.50614 -9.67405 14.6709
        }
      }
    }
  }
  JOINT simLeftUpLeg
  {
    OFFSET 8.44614 -9.41038 0.835684
    CHANNELS 3 Zrotation Xrotation Yrotation
    JOINT simLeftLeg
    {
      OFFSET 0 -40.9639 0
      CHANNELS 3 Zrotation Xrotation Yrotation
      JOINT simLeftFoot
      {
        OFFSET 0 -40.9639 0
        CHANNELS 3 Zrotation Xrotation Yrotation
        End Site
        {
          OFFSET -0.50614 -9.67405 14.6709
        }
      }
    }
  }
}
MOTION
Frames:	9
Frame Time:	0.0333333
-191.852 91.2849 -43.4722 -4.33266 5.29436 61.4501 0.920086 11.6979 28.6906 -36.0971 -5.03306 -49.8015 26.17 -5.90366 -37.0325 21.2836 -6.5636 3.18309 -12.4617 -25.7209 -39.5891 -6.78568 -30.2741 74.9064 -12.4228 -4.08461 19.2955 28.169 -14.6523 38.4639 -37.4722 -6.87483 -18.9709 8.40592 26.4016 -0.996462 -0.983193 -5.90417 -15.8011 21.809 -32.142 23.0506 -23.3808 40.6706 9.06468 6.65334 -10.4887 11.3003 
-192.106 91.6041 -45.1945 -4.97044 4.64903 62.1653 1.53658 10.3476 30.8803 -32.9178 -12.1157 -72.1185 28.5726 -7.47024 -40.7352 21.8021 -0.4192 1.28405 -21.0827 -29.6922 -51.1868 -14.7533 -37.0276 61.0495 3.74822 0.750677 3.6989e-06 16.5167 -20.392 26.0634 -35.0315 -5.6065 -14.8332 13.8998 40.1895 -3.72561 0.109188 -4.15471 -14.3127 22.0238 -32.8999 24.0619 -23.2153 40.4724 8.94178 6.07367 -10.4327 10.6005 
-192.214 91.3808 -46.5548 -4.97249 3.48757 60.2769 0.506199 8.81901 31.1841 -27.896 -16.8349 -89.127 31.0512 -9.28706 -44.5886 22.9231 10.8141 2.13121 -21.6209 -27.9321 -51.5031 -7.12386 -39.0143 48.3775 -0.638882 -0.100881 0.967081 -9.33006 -54.1374 10.4577 -32.3007 -4.70012 -12.8373 19.7649 50.6643 -7.83864 9.06576 2.90058 -23.3258 25.7187 -31.1688 31.0554 -24.5723 42.0341 9.85759 6.95467 -11.4275 9.94123 
-191.983 91.1038 -48.266 -5.32049 2.31059 56.853 0.489023 6.96092 25.7588 -21.0417 -23.3061 -98.3738 31.995 -10.0589 -46.1088 20.8964 18.1268 4.56713 -19.1049 -20.6516 -41.8662 29.6323 -41.8193 59.6104 -13.3192 -4.57046 20.7509 -26.2858 -63.2233 -14.5636 -30.2005 -3.05929 -13.3279 20.4359 51.5083 -8.51679 19.9327 9.60319 -35.1112 29.2356 -29.278 37.0791 -25.795 43.3631 10.7254 8.79958 -11.7739 12.6265 
-191.83 90.9964 -50.8413 -4.48409 1.42455 49.5877 0.0115128 7.728 14.2492 -12.1413 -30.6841 -99.3791 29.8945 -8.41267 -42.7832 19.088 20.616 4.98111 -12.5778 -16.5384 -22.8145 47.1301 -25.0641 63.7345 -23.2954 -12.3056 38.2084 -38.3877 -65.6572 -31.0893 -29.6898 -3.9464 -10.8833 19.5698 50.305 -7.79223 15.0947 6.83187 -33.6792 30.3115 -26.4175 40.0121 -26.0033 43.5861 10.9117 10.6988 -10.8894 16.2799 
-191.854 90.6748 -54.1604 -3.25295 -0.303104 39.3068 0.931348 11.3142 0.276177 -6.47425 -29.1406 -95.7838 25.2619 -5.39393 -35.7204 20.2449 17.5566 3.3027 -2.48079 -24.9422 0.162588 44.5884 -3.5243 61.1681 -29.8935 -20.9538 52.4335 -20.7369 -54.981 -9.42507 -29.4213 -8.09891 -5.41729 19.1908 49.8103 -7.36688 8.74802 1.8338 -29.7848 31.454 -23.3369 40.8314 -26.6897 44.2984 11.4336 12.6773 -10.2931 23.1502 
-192.086 89.9219 -57.5698 -2.63298 -2.03327 27.9313 1.5768 15.6276 -14.3774 -3.36732 -24.3596 -86.6455 16.6633 -1.65553 -23.247 17.712 13.5978 2.5433 18.1405 -33.5883 29.7203 36.9929 16.0315 64.5236 -33.7377 -29.1223 64.1481 -12.808 -44.8835 -2.30385 -28.6495 -14.7824 0.366461 20.1934 51.3429 -7.90292 7.94875 -4.44594 -23.8947 33.864 -20.9038 41.0443 -28.819 46.3582 12.9506 12.3943 -11.2667 25.7526 
-192.675 88.437 -60.6116 -1.92883 -4.00241 16.7496 0.458895 20.5326 -25.8699 10.6384 -16.3217 -67.7257 4.13317 0.225369 -5.73801 3.96107 19.209 2.60066 36.8217 -31.2375 49.4524 30.4691 30.4153 69.5858 -35.6965 -36.7517 74.807 -9.40038 -36.9808 2.59911 -27.5549 -21.1883 4.85345 22.7671 54.778 -9.78611 3.11117 -7.79701 -17.8984 36.5988 -18.8796 38.411 -32.5123 49.4938 15.6748 10.6918 -13.1394 21.5787 
-193.05 85.9782 -63.1667 -1.20472 -6.92551 5.52913 -0.564323 24.2827 -30.0165 23.74 10.0491 -52.7827 -2.50293 -0.186189 5.36525e-05 -1.22152 4.32419 3.52189 35.8886 -28.5268 51.0979 26.8227 39.1568 70.8608 -35.9877 -43.0525 84.0736 -7.58964 -24.6111 8.81547 -27.2869 -25.4789 7.26344 26.1174 58.444 -12.5585 -3.15384 -5.89279 -24.277 39.2465 -15.8442 34.6555 -38.9605 53.8825 20.7102 8.4704 -16.8712 18.2682 
